<?xml version="1.0" encoding="utf-8"?>
<!-- Generator: Adobe Illustrator 18.0.0, SVG Export Plug-In . SVG Version: 6.00 Build 0)  -->
<!DOCTYPE svg PUBLIC "-//W3C//DTD SVG 1.1//EN" "http://www.w3.org/Graphics/SVG/1.1/DTD/svg11.dtd">
<svg version="1.1" id="Layer_1" xmlns="http://www.w3.org/2000/svg" xmlns:xlink="http://www.w3.org/1999/xlink" x="0px" y="0px"
	 viewBox="0 0 1024 1024" enable-background="new 0 0 1024 1024" xml:space="preserve">
<g>
	<path d="M17.17,947.47c0-291.08,0-582.16,0-873.46c121.84,0,243.5,0,365.65,0C261.04,365.42,139.37,656.54,17.7,947.67
		C17.52,947.6,17.35,947.54,17.17,947.47z"/>
	<path d="M1006.83,948.36C884.9,656.47,763.3,365.33,641.57,73.9c122.02,0,243.49,0,365.26,0
		C1006.83,365.13,1006.83,656.27,1006.83,948.36z"/>
	<path d="M512.26,397.08c77.84,184.71,155.27,368.46,232.93,552.74c-1.64,0.08-2.88,0.2-4.12,0.2c-48.1,0.01-96.2-0.02-144.3,0.08
		c-3,0.01-4.35-0.95-5.42-3.68c-22.19-56.3-44.49-112.56-66.66-168.87c-1.2-3.05-2.67-4.06-5.95-4.05
		c-53.59,0.11-107.18,0.08-160.77,0.08c-1.63,0-3.26,0-5.52,0C405.75,647.98,458.81,522.99,512.26,397.08z"/>
</g>
</svg>
