<?xml version="1.0" encoding="utf-8"?>
<!-- Generator: Adobe Illustrator 18.0.0, SVG Export Plug-In . SVG Version: 6.00 Build 0)  -->
<!DOCTYPE svg PUBLIC "-//W3C//DTD SVG 1.1//EN" "http://www.w3.org/Graphics/SVG/1.1/DTD/svg11.dtd">
<svg version="1.1" id="Layer_1" xmlns="http://www.w3.org/2000/svg" xmlns:xlink="http://www.w3.org/1999/xlink" x="0px" y="0px"
	 viewBox="0 0 1024 1024" enable-background="new 0 0 1024 1024" xml:space="preserve">
<g>
	<path d="M0,1026.48C0,684.32,0,342.16,0,0c342.16,0,684.32,0,1026.48,0c0,342.16,0,684.32,0,1026.48
		C684.32,1026.48,342.16,1026.48,0,1026.48z M609.3,845.81c19.22,42.61,65.87,79.43,113.99,91.07c37.38,9.04,74.8,10.32,112.37,1.88
		c27.92-6.27,53.12-18.04,73.52-38.63c19.81-20,30.61-44.31,33.67-72.2c2.37-21.55,1.06-42.81-5.13-63.63
		c-8.56-28.78-26.93-50.25-50.9-67.48c-25.36-18.23-53.89-30.31-82.2-42.91c-17-7.56-33.81-15.68-50.05-24.73
		c-12.12-6.75-19.35-17.72-21.21-32.04c-2.92-22.42,10.67-42.17,32.72-46.34c28.52-5.4,51.02,4.01,67.38,28
		c2.52,3.7,4.88,7.51,7.54,11.62c25.13-16.14,49.87-32.04,74.73-48.01c-0.77-1.45-1.18-2.32-1.69-3.13
		c-2.13-3.45-4.2-6.95-6.47-10.3c-15.91-23.53-35.99-42.23-62.89-52.45c-36.67-13.93-74.24-15.03-111.95-5.3
		c-28.43,7.34-52.91,21.91-70.26,46.06c-30.18,42.02-31.25,87.61-12.96,134.2c11.17,28.47,33.47,47.67,59.01,63.39
		c25.96,15.98,54.73,25.95,82.11,38.9c13.14,6.22,26.27,12.88,38.21,21.07c17.04,11.69,22.81,31.46,16.32,50.4
		c-4.83,14.08-15.46,22.61-28.88,27.68c-33.05,12.47-79.21,6.79-107.5-24.62c-7.67-8.52-14.42-17.86-22-27.34
		C661.34,815.7,635.43,830.69,609.3,845.81z M346.88,809.11c-25.7,15.55-51.6,31.23-77.56,46.94c0.35,1.12,0.49,1.93,0.83,2.63
		c19.22,38.62,48.45,65.8,90.27,78.24c33.78,10.05,67.96,10.22,101.94,1.51c39.37-10.09,67.9-33.39,83.19-71.72
		c9.25-23.17,11.53-47.4,11.51-72.09c-0.11-106.22-0.05-212.44-0.05-318.66c0-1.57,0-3.15,0-4.85c-32.25,0-63.98,0-96.17,0
		c0,2.74,0,5.14,0,7.55c0,103.95,0.05,207.89-0.07,311.84c-0.01,9.55-0.43,19.2-1.84,28.62c-2.35,15.63-8.66,29.48-24.81,35.05
		c-23.59,8.13-50.57,5.95-68.21-17.11C359.23,828.33,353.49,818.88,346.88,809.11z"/>
	<path fill="#FFFFFF" d="M609.3,845.81c26.12-15.12,52.04-30.12,77.48-44.84c7.58,9.47,14.33,18.82,22,27.34
		c28.28,31.41,74.45,37.09,107.5,24.62c13.42-5.07,24.05-13.6,28.88-27.68c6.49-18.94,0.72-38.71-16.32-50.4
		c-11.94-8.2-25.08-14.86-38.21-21.07c-27.38-12.95-56.15-22.93-82.11-38.9c-25.54-15.71-47.84-34.92-59.01-63.39
		c-18.29-46.59-17.22-92.18,12.96-134.2c17.35-24.15,41.83-38.72,70.26-46.06c37.71-9.73,75.27-8.64,111.95,5.3
		c26.9,10.22,46.98,28.92,62.89,52.45c2.27,3.36,4.33,6.86,6.47,10.3c0.5,0.81,0.91,1.68,1.69,3.13
		c-24.85,15.97-49.6,31.87-74.73,48.01c-2.66-4.11-5.02-7.92-7.54-11.62c-16.35-23.99-38.86-33.4-67.38-28
		c-22.05,4.17-35.64,23.93-32.72,46.34c1.87,14.33,9.09,25.29,21.21,32.04c16.24,9.05,33.05,17.17,50.05,24.73
		c28.32,12.6,56.84,24.68,82.2,42.91c23.97,17.23,42.34,38.71,50.9,67.48c6.19,20.81,7.5,42.07,5.13,63.63
		c-3.06,27.9-13.86,52.2-33.67,72.2c-20.39,20.59-45.6,32.36-73.52,38.63c-37.57,8.44-74.99,7.16-112.37-1.88
		C675.17,925.24,628.53,888.42,609.3,845.81z"/>
	<path fill="#FFFFFF" d="M346.88,809.11c6.61,9.77,12.35,19.22,19.03,27.94c17.64,23.06,44.63,25.24,68.21,17.11
		c16.15-5.57,22.47-19.41,24.81-35.05c1.41-9.42,1.83-19.07,1.84-28.62c0.12-103.95,0.07-207.89,0.07-311.84c0-2.4,0-4.81,0-7.55
		c32.19,0,63.92,0,96.17,0c0,1.7,0,3.28,0,4.85c0,106.22-0.06,212.44,0.05,318.66c0.03,24.69-2.26,48.92-11.51,72.09
		c-15.3,38.33-43.83,61.63-83.19,71.72c-33.98,8.71-68.16,8.54-101.94-1.51c-41.82-12.44-71.05-39.63-90.27-78.24
		c-0.35-0.7-0.49-1.51-0.83-2.63C295.28,840.34,321.18,824.67,346.88,809.11z"/>
</g>
</svg>
